<?xml version="1.0" encoding="utf-8"?>
<!-- Generator: Adobe Illustrator 23.0.1, SVG Export Plug-In . SVG Version: 6.00 Build 0)  -->
<svg version="1.1" id="Layer_1" xmlns="http://www.w3.org/2000/svg" xmlns:xlink="http://www.w3.org/1999/xlink" x="0px" y="0px"
	 viewBox="0 0 486.4 461.9" style="enable-background:new 0 0 486.4 461.9;" xml:space="preserve">
<g>
	<path d="M327.8,299.7c-21.2,0-42.3,0-64.4,0c1.1-1,1.7-1.9,2.5-2.2c0.7-0.3,1.6-0.2,2.5-0.1c17.2,1.4,20.6-6,22.5-20.3
		c5.2-39.1,10.8-78.1,16.3-117.2c1.1-7.7,2.3-15.5,3.3-23.2c0.8-5.6-0.6-6.6-6.1-4.5c-8.3,3.3-16.6,6.6-24.9,9.9
		c-0.4-0.4-0.8-0.7-1.3-1.1c0.7-1.1,1.2-2.7,2.3-3.2c14.8-7.6,29.6-15.2,44.4-22.6c4.1-2.1,5.4-0.9,4.7,4.5
		c-2.1,15.7-4.4,31.3-6.6,47c-5.4,38.5-10.9,77.1-16.2,115.7c-1.6,11.2,1.9,15,13.2,15.1c2.6,0,5.2,0.2,7.8,0.4
		C327.9,298.4,327.8,299.1,327.8,299.7z"/>
	<path d="M163.6,206.4c0,13.6,0,25.8,0,38.4c-5.1,0-9.6,0-14.6,0c0-21.2,0-42.6,0-64.2c6.8-1,12.6-1,17.5,6
		c6.6,9.6,14.5,18.2,21.9,27.2c1.3,1.6,2.7,3.2,5,5.9c0-13.9,0-26.4,0-39.2c5.1,0,9.7,0,14.6,0c0,21.4,0,42.7,0,64.2
		c-6.6,1.1-12.3,1.3-17.2-5.4C182.6,228.2,173.3,218,163.6,206.4z"/>
	<path d="M348,180.1c2.5,0,4.7,0.2,6.8,0c3.7-0.4,6.1,0.9,8.4,3.8c7.9,10.1,16.1,19.9,24.2,29.9c1.3,1.6,2.7,3.2,5,5.9
		c0-14,0-26.5,0-39.3c5.1,0,9.7,0,14.6,0c0,21.5,0,42.7,0,64.3c-6.7,1-12.4,1.3-17.3-5.4c-8-11-17.3-21.1-26.9-32.6
		c0,13.3,0,25.6,0,38.2c-5.3,0-9.9,0-14.8,0C348,223.5,348,202.1,348,180.1z"/>
	<path d="M87,180.3c16.3,0,32.2,0,48.5,0c0,3.9,0,7.6,0,11.8c-11.2,0-22.3,0-33.6,0c0,4.8,0,9,0,13.8c9.8,0,19.5,0,29.6,0
		c0,4.2,0,7.9,0,12.1c-9.8,0-19.5,0-29.5,0c0,5.1,0,9.7,0,14.9c11.4,0,23,0,34.7,0c0,4.2,0,7.8,0,11.8c-16.5,0-32.9,0-49.6,0
		C87,223.5,87,202.1,87,180.3z"/>
	<path d="M438,233.2c11.7,0,22.9,0,34.5,0c0,4,0,7.7,0,11.7c-16.6,0-33,0-49.6,0c0-21.4,0-42.7,0-64.3c16,0,32,0,48.5,0
		c0,3.5,0,7.2,0,11.4c-11,0-22,0-33.4,0c0,4.9,0,9.2,0,14.1c9.9,0,19.6,0,29.6,0c0,4.1,0,7.7,0,11.8c-9.7,0-19.4,0-29.5,0
		C438,223.1,438,227.8,438,233.2z"/>
	<path d="M266.9,180.4c5.2,0,9.8,0,14.6,0c0,14.3,1,28.5-0.3,42.5c-1.5,16.5-15.8,25.6-33.6,23.1c-15.6-2.2-23.7-11.1-24.7-27
		c-0.1-2.2-0.1-4.3-0.1-6.5c0-10.5,0-21,0-31.9c4.9,0,9.6,0,15.1,0c0,1.6,0,3.3,0,5.1c0,10.3-0.1,20.6,0,31c0.1,9,3.3,14,9.5,15.8
		c10.3,3.1,18.8-2.4,19.2-13.1c0.5-10.6,0.2-21.3,0.2-32C266.9,185.2,266.9,183.1,266.9,180.4z"/>
	<path d="M59.1,211.9c4.2,0,8.3,0,13.1,0c0,8.3,0.1,16.4-0.1,24.5c0,1.1-1.4,2.6-2.6,3.2c-12.6,7.1-25.7,8.9-39.2,3.3
		c-14-5.8-21.1-19-19.5-34.8c1.4-13.7,11.8-25,26-28.1c10.3-2.2,20.2-1.3,29.4,4.2c2.6,1.6,4.9,3.8,7.6,6c-3.5,3.3-6.5,6.1-8.4,7.8
		c-6.5-2.2-11.9-5.1-17.6-5.7c-8.3-1-15.5,2.4-19.6,10.1c-3.9,7.5-3.7,15.2,1.3,22.2c5.1,7.3,12.7,9.2,21.2,8.2c7.6-1,8-1.6,8-9.4
		c0-3.3,0-6.7,0.1-10C58.7,213.2,58.8,212.9,59.1,211.9z"/>
	<path d="M391.8,258.9c2.7,1.7,4.8,2.5,6.1,4c6.7,8,13.1,16.2,20.4,25.4c0-9.9,0-18.6,0-27.7c2,0,3.5,0,5.3,0c0,12.5,0,24.9,0,39
		c-2.8-1.8-5-2.7-6.4-4.3c-6.6-7.9-13-16-20.2-25c0,9.8,0,18.6,0,27.7c-2,0.1-3.4,0.2-5.2,0.3C391.8,285.5,391.8,273.1,391.8,258.9z
		"/>
	<path d="M68.4,279.3c-0.1-11,8.3-19.1,19.8-19.2c11.5-0.1,20.1,7.9,20.2,18.8c0.1,10.9-8.4,19.1-19.9,19.2
		C77,298.2,68.5,290.2,68.4,279.3z M102.9,279.3c0-8.3-6-14.5-14.3-14.7c-8.4-0.2-15,6.3-14.9,14.7c0.1,8.1,6.5,14.4,14.6,14.4
		C96.7,293.7,102.9,287.5,102.9,279.3z"/>
	<path d="M327.4,279.2c0-11,8.4-19,19.9-19.1c11.5-0.1,20,7.9,20.1,18.9c0.1,10.9-8.5,19.1-19.9,19.1
		C336,298.1,327.5,290.2,327.4,279.2z M361.9,278.9c-0.1-8.2-6.4-14.4-14.6-14.3c-8.2,0.1-14.5,6.4-14.5,14.5
		c0,8.1,6.3,14.5,14.5,14.6C355.7,293.8,362,287.4,361.9,278.9z"/>
	<path d="M204.7,260.3c2,0,3.3,0,4.9,0c0,8.8,0.6,17.4-0.2,25.9c-0.7,7.8-7.2,12-15.8,11.9c-8.3-0.2-14.3-4.6-14.9-12.4
		c-0.7-8.2-0.1-16.6-0.1-25.3c1.4-0.1,3-0.2,5.1-0.3c0,7.9-0.1,15.3,0,22.8c0.1,4.9,1.8,8.8,7,10.3c7.8,2.3,13.9-2.1,14.1-10.6
		C204.9,275.3,204.7,268,204.7,260.3z"/>
	<path d="M22,291.4c5.5,0.6,10.9,1.6,16.3,1.5c1.8,0,4.5-2.9,5-4.9c0.3-1.3-2.4-4.1-4.3-4.9c-3.4-1.6-7.3-2-11-3.2
		c-4.3-1.4-7.2-4.2-7.2-9.1c0-5,2.9-8.6,7.5-9.3c5.1-0.8,10.4-0.2,15.6,0.3c3.2,0.4,4.1,2.6,2.2,4.7c-4.9-0.5-9.5-1.6-13.9-1.2
		c-2.1,0.2-4,3.1-6,4.8c1.7,1.9,3.1,4.5,5.3,5.6c3.2,1.6,7,1.9,10.5,3.1c4,1.4,6.9,3.9,6.9,8.7c0,4.8-2.6,7.9-6.8,9.4
		c-6.6,2.5-13,1.6-19.3-1.4C19.7,293.9,20.1,292.1,22,291.4z"/>
	<path d="M473.4,266.2c-5.8-0.4-10.5-1.2-15.2-0.8c-1.8,0.2-4.5,2.9-4.6,4.7c-0.1,1.7,2.2,4.3,4.1,5.2c3.2,1.6,7,2,10.5,3.1
		c4.4,1.4,7.8,3.8,7.8,9.1c0,4.7-2.7,8.1-7.8,9.7c-6.2,1.9-12.2,1.2-17.9-1.6c-3.4-1.7-3.4-1.8-1.8-4.2c6.2,0.6,11.6,1.7,17.1,1.5
		c1.8-0.1,4.5-3,4.9-5c0.3-1.3-2.5-4-4.4-4.9c-3.3-1.5-7-2-10.5-3.1c-4.5-1.4-7.6-4.2-7.6-9.3c0-4.5,2.9-8.7,8-9.4
		c4.9-0.7,10.1-0.1,15.1,0.5C474.3,262.2,475,264.4,473.4,266.2z"/>
	<path d="M243,266c-4.1-3.7-10.7,2-13.8-5.5c11,0,21.1,0,31.1,0c0.6,4,0.6,4-3.8,4.1c-2.5,0-5,0-8.1,0c0,11.2,0,22,0,33.2
		c-2.1,0.2-3.5,0.3-5.5,0.4C243,287,243,276.1,243,266z"/>
	<path d="M157.6,297.9c-8.1,0-16.2,0-24.7,0c0-12.4,0-24.7,0-37.5c1.4-0.1,2.8-0.2,4.7-0.4c0,11.2,0,22.1,0,33.7
		c5.9,0,11.4-0.1,16.8,0C157.9,293.8,157.9,293.9,157.6,297.9z"/>
</g>
</svg>
